<svg width="75" height="74" viewBox="0 0 75 74" fill="none" xmlns="http://www.w3.org/2000/svg">
<g id="Group">
<path id="Vector" d="M26.0074 0.131836C33.3737 0.131836 40.7639 0.131836 48.1302 0.131836C48.5593 0.179213 48.9884 0.202901 49.4175 0.250278C52.2067 0.510851 55.0197 0.510852 57.7374 1.05569C64.9368 2.50068 69.9431 6.64616 72.47 13.5869C73.6858 16.9506 73.9719 20.4565 73.9957 23.9861C74.0196 32.4192 74.0673 40.8523 73.9719 49.2617C73.9481 51.9385 73.7573 54.639 73.2329 57.2447C71.8502 64.2802 67.7975 69.2785 61.0034 71.9079C57.7136 73.1871 54.2807 73.5187 50.8002 73.5424C43.0048 73.6135 35.1855 73.6845 27.3901 73.6608C23.552 73.6371 19.69 73.6135 15.8996 72.7133C9.77289 71.2446 5.2196 67.7861 2.52576 62.0772C0.857019 58.5713 0.356395 54.8048 0.308717 50.9673C0.21336 42.9843 0.118003 35.0486 0.189521 27.0893C0.21336 23.7492 0.427913 20.3855 0.904697 17.0691C1.66755 11.9287 4.17067 7.66477 8.41405 4.5142C12.0376 1.81372 16.2572 0.724048 20.6912 0.416098C22.4554 0.297655 24.2433 0.22659 26.0074 0.131836ZM37.0926 67.1702C37.0926 67.1228 37.0926 67.0991 37.0926 67.0518C39.0474 67.0518 41.0023 67.0991 42.9571 67.0518C47.1766 66.9096 51.3962 66.957 55.568 66.4359C61.2656 65.7252 65.1037 62.4799 66.5102 56.842C67.0585 54.6153 67.2731 52.2465 67.2969 49.9487C67.4161 42.4868 67.4638 35.0013 67.4161 27.5394C67.3923 24.5783 67.2492 21.5936 66.8678 18.6562C66.105 12.7578 62.386 8.75444 56.5454 7.5937C54.0185 7.09624 51.3962 6.93043 48.7977 6.90674C42.3134 6.78829 35.8292 6.81198 29.3449 6.83567C25.6736 6.85936 21.9786 6.78829 18.3312 7.42788C12.6574 8.4228 8.81932 11.9287 7.6512 17.5192C7.15057 19.9117 6.9837 22.399 6.93602 24.8626C6.81682 30.761 6.76915 36.6358 6.81682 42.5342C6.8645 46.7034 6.9837 50.8725 7.36513 54.9943C7.74655 59.0451 9.67753 62.3614 13.2534 64.5645C15.6612 66.0568 18.3788 66.649 21.168 66.7438C26.508 66.957 31.8003 67.0518 37.0926 67.1702Z" fill="black"/>
<path id="Vector_2" d="M18.1167 36.9198C18.0929 26.5205 26.6512 18.0164 37.1404 18.0164C47.6297 18.0164 56.0688 26.4021 56.1403 36.8487C56.188 47.2479 47.6774 55.7758 37.1643 55.7995C26.675 55.8231 18.1406 47.3427 18.1167 36.9198ZM24.8156 36.8487C24.7917 43.6236 30.2509 49.1193 37.0689 49.143C43.8869 49.1667 49.4176 43.7657 49.4653 36.9908C49.513 30.1685 44.03 24.6728 37.1881 24.6491C30.3463 24.6491 24.8632 30.0738 24.8156 36.8487Z" fill="black"/>
<path id="Vector_3" d="M61.3374 17.2354C61.3613 19.6753 59.4065 21.6414 56.9749 21.6651C54.4956 21.6888 52.4931 19.7227 52.4692 17.2827C52.4692 14.8428 54.4002 12.9004 56.8318 12.853C59.3349 12.8293 61.3136 14.7718 61.3374 17.2354Z" fill="black"/>
</g>
</svg>
