<svg width="88" height="76" viewBox="0 0 88 76" fill="none" xmlns="http://www.w3.org/2000/svg">
<path id="Vector" d="M0.398841 29.7001C1.0425 27.1417 2.85428 25.9336 5.28588 25.1282C30.3886 16.9557 55.4674 8.71211 80.5701 0.492214C84.1222 -0.668521 87.3643 1.03705 87.9365 4.44819C88.0795 5.2536 87.9603 6.15376 87.7696 6.95917C82.7395 28.3262 77.6618 49.7169 72.6078 71.0838C71.5589 75.4899 67.1963 77.006 63.6443 74.1397C58.4473 69.9468 53.2742 65.7303 48.1011 61.49C47.6243 61.111 47.3383 61.0399 46.8138 61.4426C42.2843 64.8538 37.7549 68.2175 33.1778 71.5813C32.6295 71.984 31.962 72.363 31.2945 72.5052C29.9833 72.7894 28.8629 71.984 28.4814 70.4916C27.9093 68.2175 27.4325 65.9198 26.9319 63.622C25.5492 57.2024 24.1427 50.7828 22.7839 44.3633C22.6647 43.7947 22.3786 43.5105 21.8541 43.2973C16.1089 40.81 10.3875 38.2753 4.61839 35.8591C2.47286 34.9589 0.923302 33.6798 0.375 31.382C0.398839 30.8371 0.398841 30.2686 0.398841 29.7001ZM5.3574 30.5292C5.88187 30.7898 6.1441 30.9082 6.43017 31.0503C12.1754 33.5376 17.9207 36.0249 23.6421 38.5596C24.4288 38.9149 25.0009 38.8912 25.7638 38.4648C38.4701 31.4057 51.2002 24.3939 63.9304 17.3821C64.3118 17.1689 64.6932 16.9794 65.0985 16.8373C66.1474 16.4819 67.2679 16.8609 67.9115 17.7137C68.5313 18.5428 68.579 19.6799 67.983 20.58C67.7208 20.9827 67.3871 21.3381 67.0533 21.6934C58.5189 30.5529 49.9844 39.4361 41.45 48.2955C41.2354 48.5087 41.0447 48.7456 40.8063 48.9825C49.6745 56.2075 58.495 63.3614 67.4347 70.6338C72.6078 48.7456 77.7571 27.0233 82.9541 5.11146C57.017 13.5919 31.3183 22.025 5.3574 30.5292ZM31.2706 59.1685C31.3183 59.1685 31.3898 59.1449 31.4375 59.1449C31.4852 59.0027 31.5567 58.8369 31.6044 58.6948C32.5103 55.5442 33.3923 52.37 34.3697 49.2431C34.632 48.414 35.1087 47.5612 35.7047 46.9453C40.8302 41.5443 46.0033 36.1907 51.1764 30.8371C51.3909 30.6239 51.6055 30.3871 51.7962 30.1502C51.7485 30.1028 51.7008 30.0554 51.677 30.0317C43.7385 34.4141 35.7762 38.7965 27.8378 43.1788C28.9582 48.5561 30.1025 53.8623 31.2706 59.1685ZM43.3571 57.6762C41.6884 56.3259 40.0911 55.0231 38.3986 53.6491C37.4688 56.9181 36.5391 60.0924 35.5617 63.4798C38.2555 61.4663 40.7586 59.5949 43.3571 57.6762Z" fill="black"/>
</svg>
