<svg width="99" height="74" viewBox="0 0 99 74" fill="none" xmlns="http://www.w3.org/2000/svg">
<g id="Group">
<path id="Vector" d="M0.617095 28.1791C0.736291 26.1656 0.879321 24.152 0.998517 22.1385C1.18923 18.7748 1.49915 15.411 2.52423 12.1657C4.64592 5.53291 9.24689 1.93226 16.1364 1.29267C20.5705 0.889968 25.0046 0.724149 29.4625 0.55833C44.0998 -0.0101934 58.761 0.060872 73.3982 0.724149C77.1172 0.889968 80.8361 1.00841 84.5073 1.55325C90.8485 2.50078 95.2349 6.93053 96.7368 13.2317C97.8334 17.8509 97.9288 22.5412 98.0957 27.2552C98.4294 36.9912 98.4533 46.7035 97.4759 56.392C97.0944 60.1111 96.1409 63.7355 93.7808 66.7913C91.3253 69.9892 88.0355 71.908 84.0305 72.2633C78.5475 72.7371 73.0645 72.9977 67.5815 73.2109C53.8262 73.7794 40.071 73.5425 26.3158 72.9977C22.1439 72.8318 17.9244 72.5713 13.8002 71.8843C7.38743 70.8183 3.69235 66.6728 2.11896 60.5138C1.07004 56.4157 1.07004 52.1992 0.783973 48.0063C0.736294 47.2483 0.664779 46.514 0.593262 45.7559C0.617101 39.9286 0.617095 34.0538 0.617095 28.1791ZM51.5854 5.72242C42.598 5.93561 35.7323 6.05405 28.8904 6.29094C24.7662 6.43307 20.642 6.64627 16.5178 7.00159C12.489 7.35692 9.58064 9.29937 8.19796 13.279C7.22056 16.098 6.91065 18.988 6.74378 21.9253C6.17164 31.9219 6.12395 41.9421 6.76761 51.9386C6.93449 54.5443 7.36359 57.1264 7.88806 59.6847C8.22181 61.3192 8.91314 62.859 10.1766 64.0671C11.893 65.7253 14.0147 66.4123 16.2795 66.6255C19.6408 66.9571 22.9783 67.2177 26.3396 67.3598C41.7159 67.9757 57.0922 68.1178 72.4685 67.3835C76.1397 67.2177 79.8348 67.0518 83.4822 66.6255C86.7959 66.2228 89.1798 64.3987 90.4194 61.2008C91.6352 58.1213 91.9213 54.8997 92.112 51.6544C92.6127 43.0081 92.6603 34.3618 92.2789 25.7155C92.112 21.8543 92.0643 17.9457 91.0154 14.1555C90.1572 11.0997 88.5123 8.75454 85.437 7.71225C83.9829 7.21479 82.4094 6.93053 80.8837 6.85946C70.4183 6.38569 59.9529 6.03037 51.5854 5.72242Z" fill="black"/>
<path id="Vector_2" d="M37.0194 35.7586C37.0194 32.0869 37.0194 28.4388 37.0194 24.7671C37.0194 21.0954 40.047 19.2714 43.2892 21.0244C50.2025 24.7671 57.0921 28.5336 64.0055 32.2764C65.5312 33.1055 66.4847 34.2662 66.4847 36.0192C66.4609 37.7721 65.4596 38.9092 63.9339 39.7146C57.0444 43.3626 50.1787 47.058 43.2892 50.7297C40.0232 52.459 37.0194 50.6823 36.9956 47.0343C37.0194 43.2678 37.0194 39.5251 37.0194 35.7586ZM42.7885 44.5707C48.1762 41.7044 53.4447 38.8855 58.8562 35.9955C53.4208 33.0344 48.1524 30.1681 42.7885 27.2544C42.7885 33.0581 42.7885 38.7196 42.7885 44.5707Z" fill="black"/>
</g>
</svg>
